<svg width="150" height="165" viewBox="0 0 150 165" fill="none" xmlns="http://www.w3.org/2000/svg">
<path d="M50.6516 79.7229C50.4859 77.7192 49.7597 75.6841 48.6039 73.837C45.1037 68.2639 42.7262 62.4715 41.4714 59.1214C41.4384 59.0274 41.4053 58.9022 41.3723 58.8082C37.311 68.0133 36.4191 76.4667 36.2874 77.9698C37.8721 81.2572 39.5234 84.044 41.075 86.3292C41.5367 87.0046 42.0101 87.6727 42.495 88.3334C45.7645 87.9888 48.1089 86.9243 49.3968 85.1712C50.4204 83.7935 50.8498 81.9772 50.6516 79.7229ZM63.827 12.1256C62.5061 13.0961 60.459 14.7553 57.8502 17.4481C55.5718 19.8277 52.7979 22.3948 50.6516 24.305C56.9918 22.4574 62.2418 21.0488 63.3976 20.7356C63.3645 18.262 63.4306 15.3191 63.827 12.1256ZM37.5753 28.8136C38.8632 27.9997 40.6796 27.2484 43.1887 26.4971C43.3869 26.4345 43.5521 26.3719 43.7503 26.3405C43.486 22.5206 42.7267 18.3252 41.9014 14.5678C41.0425 10.6231 40.085 7.21028 39.5239 5.30005C34.6367 10.5286 32.7212 16.9166 32.3908 18.1999C33.0185 20.4229 33.8769 22.4579 34.7683 24.1802C35.5923 25.7832 36.5301 27.3312 37.5753 28.8136Z" fill="#333338"/>
<path d="M24.8479 109.874C26.5399 110.686 37.4687 115.648 44.5402 111.31C51.4425 107.128 47.5513 97.6705 46.9087 96.2034C45.5891 95.111 38.2467 88.6503 32.3256 74.8239C26.9122 62.2143 21.8368 40.9905 26.6414 9.71655C26.6076 9.81023 26.5737 9.87268 26.5399 9.96635C23.596 16.9886 19.5022 28.0379 16.6599 40.7719C12.2614 60.3106 10.0956 87.8077 24.1376 108.813C24.3745 109.156 24.6115 109.531 24.8479 109.874Z" fill="#333338"/>
<path d="M35.1024 46.1861C35.0366 45.5128 34.9677 44.8398 34.8955 44.167L27.6243 51.5919C28.2794 55.9094 29.2103 60.2278 30.4505 64.4837C32.4497 61.7186 35.9983 55.3504 35.1024 46.1861Z" fill="#333338"/>
<path d="M37.6399 40.4474C37.8406 42.0767 38.0748 43.8935 38.2749 46.0551C39.3782 57.9601 33.9289 65.322 32.3908 67.1701C33.1601 69.6138 34.0292 72.0262 35.0321 74.4071C35.0656 74.4698 35.099 74.5325 35.099 74.5952C35.7345 70.6476 37.2051 64.0688 40.5154 57.0825C40.716 56.6756 40.8828 56.2681 41.1169 55.8607L42.3205 53.4802L43.0892 55.986C43.1227 56.0801 45.8977 64.9772 51.0465 73.0599C52.3839 75.1589 53.2195 77.5085 53.4202 79.7955C53.5874 81.7063 53.3533 83.3983 52.7513 84.8395C52.4837 85.4659 52.1832 86.03 51.7818 86.5624C50.2772 88.5672 47.8032 89.8518 44.46 90.4159C45.9312 92.2014 47.1682 93.4859 47.9704 94.269C48.4052 94.6764 48.7063 94.9585 48.9069 95.1147C50.0102 95.4281 55.3591 96.8067 59.8055 96.1177C60.9422 95.9296 61.979 95.6475 62.915 95.1461C66.7599 93.1098 67.0938 89.9145 67.0938 88.6926C65.1215 87.5961 59.505 83.2729 64.1855 71.3998C64.2189 71.2744 64.2858 71.1491 64.3193 71.0237L64.3857 70.867L64.486 70.7416C64.5529 70.6476 65.456 69.7078 67.0269 68.6741C68.2061 67.8969 69.4871 67.2652 70.8383 66.7945C76.2881 55.5477 66.7599 47.6844 66.3585 47.371L65.7899 46.9322L66.024 46.2745C67.328 42.9224 67.0269 38.2545 66.392 34.4641C65.7899 30.8299 64.9208 28.0415 64.9208 27.9788L64.8874 27.8848C64.8539 27.6659 64.486 25.8485 64.3193 22.9666C63.6503 23.1546 62.614 23.4362 61.2097 23.8123C57.2645 24.8779 50.8124 26.6943 44.3597 28.6051C36.4698 30.9553 36.6376 32.2084 37.6399 40.4474ZM48.4382 127.446H48.4716C51.8817 128.009 55.4255 127.665 55.9936 127.602C57.9664 127.038 59.471 125.942 60.5743 124.814C61.1758 124.188 61.644 123.561 62.0449 122.997C62.4128 122.433 62.7138 121.901 62.9145 121.493C59.5045 120.334 56.2946 121.305 53.7202 122.872C51.3465 124.313 49.4745 126.224 48.4382 127.446ZM131.986 84.3072L131.953 84.4321L131.886 84.5575C131.852 84.5888 131.518 85.247 130.95 86.3748C128.643 90.9801 122.926 103.48 122.926 113.411C122.926 116.982 123.528 120.021 124.798 122.715C127.105 127.602 126.905 132.897 124.297 137.251C122.324 140.509 119.182 142.765 115.805 143.298C114.468 144.269 107.179 149.908 104.304 156.33C103.903 157.207 103.502 158.241 103.067 159.338C102.639 160.405 102.205 161.47 101.763 162.533C104.003 162.094 106.243 161.343 108.45 160.34C109.185 159.996 109.921 159.651 110.656 159.275C121.522 153.573 131.184 142.671 132.856 136.688C133.825 133.21 134.494 129.639 135.029 126.036C135.664 121.525 136.065 117.013 136.433 112.533L138.706 85.748C139.141 80.7044 139.609 75.0026 137.57 70.1153C135.296 64.6329 133.725 62.1579 129.011 57.7407C133.023 66.8259 134.026 75.8484 131.986 84.3072Z" fill="#333338"/>
<path d="M67.0989 29.3501C68.0496 32.9995 69.6457 40.7346 67.8457 46.1616C69.9174 48.0641 77.1162 55.6749 73.0752 65.8741C74.5656 65.634 76.0834 65.5711 77.5913 65.6869L78.2028 65.7493L78.4745 66.2481C78.5765 66.4353 80.9534 71.0515 78.4406 75.2309L78.2028 75.6366H78.1688C78.3047 76.2289 78.3726 76.853 78.3726 77.4766C78.3726 81.3444 76.0636 84.3697 73.1092 84.3697C71.4791 84.3697 70.4265 83.5901 69.7816 82.7476C69.4758 83.5277 69.238 84.4009 69.0682 85.3678C68.9328 86.085 68.8649 86.8338 68.7969 87.6135C68.8649 88.1127 68.9663 90.14 67.8118 92.3233C67.0649 93.727 65.7405 95.2238 63.5335 96.3778C61.4962 97.4383 58.9834 97.7815 56.5725 97.7815C53.8558 97.7815 51.2071 97.3447 49.4751 96.9707C50.0395 98.529 50.4155 100.14 50.5962 101.774C51.1397 106.733 49.4411 110.569 45.6724 112.846C43.3974 114.219 40.6128 114.905 37.4545 114.905C35.4852 114.905 33.38 114.624 31.139 114.094C28.9097 113.547 26.7389 112.817 24.6531 111.91C24.1435 113.221 23.3627 114.187 22.5479 114.936C21.9704 115.466 21.3929 115.903 20.8159 116.308C18.8806 117.712 17.794 118.492 19.2877 121.985C19.8652 122.453 21.7666 123.919 23.8723 124.636L23.1249 126.476C21.3255 125.884 19.6614 124.823 18.6767 124.075L17.1486 126.508C17.9299 127.412 18.7787 128.192 19.6274 128.878C25.8415 133.9 33.414 134.149 34.2628 134.149C42.7859 132.87 46.0795 133.681 48.9661 134.43C50.6981 134.867 52.2257 135.272 54.7386 135.116C60.613 134.804 66.3181 130.624 67.5065 129.689C67.5405 129.564 67.5745 129.44 67.6424 129.315C68.8988 125.041 68.3553 118.492 68.1515 116.433C63.8732 115.435 57.8289 115.435 57.761 115.435V113.47C58.0327 113.47 64.8578 113.47 69.4419 114.718L70.1213 114.905L70.1887 115.56C70.1887 115.622 70.2227 115.841 70.2566 116.183C70.3925 117.369 70.6303 120.051 70.5624 123.014C75.656 114.624 83.9073 109.041 85.3676 108.074C95.7241 91.0132 90.5291 76.0729 86.7599 65.1565C86.1144 63.3164 85.5374 61.6007 85.0618 60.0103C84.3829 57.7334 83.9753 55.7061 84.0772 53.9904C84.6547 43.542 81.2926 34.7464 79.731 31.2838C78.5085 32.8747 77.2861 34.372 76.1655 35.6196L75.588 36.2437L74.8072 35.838C74.5354 35.682 68.1175 32.2199 69.8835 28.3209C72.5322 22.5506 73.5848 11.6029 73.7546 9.45085L73.8226 8.76437L75.4861 8.3592L75.9277 8.92087C76.8105 10.1061 79.7989 14.0983 80.9874 16.4376L80.1381 16.7808L79.0176 17.2484C78.6784 16.5619 78.1348 15.6892 77.4894 14.7219C76.9124 13.8798 76.3009 12.9442 75.656 12.0398C75.1804 16.2816 74.0598 24.2975 71.8528 29.0385C71.1059 30.629 73.5168 32.625 75.1124 33.6231C75.8598 32.7499 76.6406 31.783 77.4559 30.785C78.6456 29.2477 79.8004 27.6878 80.9194 26.1064C83.5676 22.4263 85.8092 18.9641 86.59 17.7788C84.1791 13.1002 80.8515 9.20122 77.7272 6.20712C74.4675 3.0882 71.4451 0.998515 69.9174 0C64.077 12.6946 66.4879 26.356 66.6572 27.2604C66.6233 27.5725 66.8271 28.2897 67.0989 29.3501ZM61.1225 118.648C62.1751 118.804 63.2277 119.116 64.2803 119.583L65.1296 119.958L64.8578 120.768C64.7559 121.018 62.6507 127.163 55.961 129.003L55.7911 129.034C55.6892 129.034 54.1276 129.221 52.0559 129.221C50.1545 129.221 47.8116 129.065 45.6045 128.504L44.1777 128.13L44.993 127.007C45.027 126.976 45.2987 126.57 45.8083 125.978C46.725 124.886 48.3551 123.139 50.5277 121.58C54.0257 119.116 57.6251 118.118 61.1225 118.648ZM79.7649 85.2117L81.2926 86.5842C80.6309 87.1961 79.9277 87.769 79.1874 88.2995C77.1842 89.7655 75.1804 90.8884 75.0445 90.9508L74.6374 91.2004L70.3586 89.9216L71.038 88.0503L74.3656 89.0483C75.2721 88.5189 76.1557 87.9569 77.0143 87.3638C77.931 86.709 78.9496 85.9606 79.7649 85.2117Z" fill="#333338"/>
<path d="M76.5091 68.0283C73.2306 67.9021 70.594 68.8164 68.7346 69.8252C67.0111 70.7394 65.9295 71.7483 65.5914 72.0952C62.7519 79.1577 63.834 83.13 65.3547 85.2423C65.7014 85.728 66.11 86.1727 66.5715 86.5666C67.2478 81.3016 69.7829 78.2745 71.9123 76.6669C73.8049 75.2164 75.6304 74.6176 76.5429 74.3968C77.7259 71.906 76.9149 69.1628 76.5091 68.0283Z" fill="#333338"/>
<path d="M71.0381 80.2847C70.9019 80.4722 70.7318 80.6908 70.5956 80.9095C71.3104 82.5956 72.0586 82.8143 72.8074 82.8143C73.3515 82.8143 73.8961 82.5643 74.338 82.1587C74.1678 82.1899 74.0322 82.1899 73.862 82.1899C72.7053 82.2212 71.6848 81.4714 71.0381 80.2847ZM37.1526 136.245C39.4319 137.4 42.8005 138.93 45.4878 139.461C47.8693 139.93 50.2167 138.712 51.7819 137.588C50.3529 137.463 49.1962 137.182 48.0054 136.869C45.692 136.276 43.0728 135.62 37.1526 136.245ZM75.257 76.8501C74.3055 77.3019 73.4243 77.869 72.6373 78.5362C72.9095 79.6291 73.5217 80.2227 73.862 80.2227C74.4061 80.2227 75.257 79.036 75.257 77.2558V76.8501ZM59.6406 172.032C60.1171 171.064 61.5461 168.034 62.5667 164.038C57.2932 162.382 54.3676 157.698 53.6528 156.387C52.0537 155.699 50.5231 154.919 49.0941 154.138C49.4465 156.066 49.9583 157.966 50.6252 159.822C51.6798 160.384 54.7755 162.102 57.2591 164.006L57.4633 164.162L57.5655 164.412C57.6676 164.631 59.2667 168.628 59.1306 172.25C59.3343 172.188 59.4704 172.094 59.6406 172.032Z" fill="#333338"/>
<path d="M78.5768 194.822C79.5541 195.041 80.2612 195.73 80.733 196.858C81.1368 194.477 80.8672 191.532 80.6656 189.934C78.6442 190.561 76.0843 191.156 73.1204 191.344L72.8508 191.376L72.615 191.282C72.5813 191.282 68.8761 189.778 65.0366 189.715V189.245L65.0703 187.71C68.7755 187.773 72.2448 188.995 73.2215 189.339C73.7289 189.306 74.2346 189.254 74.7374 189.183C79.5541 188.588 83.0234 186.927 83.8653 186.52C87.3009 181.727 88.9178 177.685 89.6587 175.367C88.5135 175.9 87.2672 176.307 85.8861 176.589C85.8187 176.589 85.7513 176.62 85.7176 176.62C85.0779 176.745 84.4044 176.808 83.7305 176.808C81.9792 176.808 80.1601 176.463 78.1056 176.056C77.4316 175.931 76.6908 175.774 75.95 175.649L76.3538 173.707C77.0952 173.832 77.836 173.989 78.5431 174.114C81.1368 174.615 83.3935 175.054 85.28 174.678C86.8074 174.386 88.2744 173.867 89.625 173.142C95.6542 169.916 98.3827 163.118 100.471 157.886C100.872 156.854 101.299 155.83 101.751 154.816C104.85 148.018 112.26 142.285 113.911 141.063C114.113 140.06 114.584 136.614 113.069 132.228C112.926 131.806 112.769 131.388 112.597 130.975C111.317 130.192 105.456 126.715 98.7871 124.898L99.3931 122.986C107.242 125.117 113.809 129.315 114.079 129.503L114.349 129.659L114.483 129.941C114.837 130.771 115.14 131.618 115.393 132.479C116.403 135.894 116.369 138.682 116.201 140.311C118.491 139.59 120.613 137.899 122.028 135.549C123.476 133.105 124.083 130.349 123.78 127.529C123.605 125.885 123.15 124.278 122.432 122.767C121.018 119.822 120.344 116.502 120.344 112.679C120.344 100.243 128.664 84.6407 129.539 83.0433C133.346 67.1912 125.228 52.4983 117.413 42.7236C111.452 35.2369 105.658 30.6002 105.523 30.5062L105.288 30.3182L105.186 30.0674C102.761 23.6453 98.012 14.9989 89.0863 10.3936C86.9075 9.25746 84.5567 8.43362 82.1135 7.94995C84.2696 10.519 86.3578 13.495 88.0422 16.8784L88.2776 17.3486L88.0085 17.7873C87.8063 18.1003 84.337 23.5826 80.4971 28.8456C80.9346 29.6918 81.7771 31.5087 82.6527 34.0772C84.2359 38.6825 85.9535 45.6688 85.5159 53.6888C85.3811 56.2892 86.6274 59.9547 88.1091 64.2152C91.7806 74.9292 97.3386 91.126 86.4589 109.077L86.3242 109.265L86.122 109.39C85.9872 109.484 73.053 117.849 69.1794 129.691C69.112 129.941 69.0446 130.192 68.9435 130.443L68.8761 130.693L68.6407 130.881C68.3711 131.1 62.0049 136.426 54.8978 136.99C53.8874 137.993 50.5529 140.969 46.6119 140.969C46.1064 140.969 45.6009 140.906 45.0623 140.812C40.6837 139.904 35.0246 136.771 33.7788 136.05C33.5092 136.05 33.0712 136.019 32.5325 135.988C29.0627 135.674 20.7436 134.202 14.9165 127.091L14.4784 126.558L17.0379 122.36C15.1518 117.629 17.2738 116.094 19.3288 114.591C20.6425 113.62 22.023 112.617 22.6296 110.486C17.1395 102.623 13.9393 93.82 12.3223 84.8288C11.413 87.4292 10.3352 91.0947 9.86341 94.6975L9.83023 94.9164L9.69544 95.1045C9.62804 95.1985 2.1503 105.725 0.297456 109.954C-0.847742 112.523 1.57796 115.092 3.09331 116.376C3.76727 115.06 5.11413 113.087 7.60671 111.771L8.65082 113.494C8.28066 113.682 7.94369 113.901 7.60671 114.152C5.5522 115.656 4.77767 117.661 4.60919 118.162C4.64288 119.259 4.94616 126.307 6.93328 129.847C7.20286 130.349 7.47244 130.975 7.74202 131.695C9.72914 137.147 11.1097 148.143 11.1097 152.874C11.1097 155.724 19.8 157.478 26.4696 157.886C26.7723 157.917 27.0761 157.917 27.3789 157.949L27.2778 159.922C27.143 159.922 24.583 159.797 21.417 159.358C23.9433 162.366 28.5241 168.287 30.2421 174.02C31.2188 174.396 36.1029 176.119 45.0286 175.242L45.2645 177.215C43.3448 177.403 41.6267 177.497 40.044 177.497C35.429 177.497 32.3298 176.808 30.6123 176.307V178.312C31.2862 178.343 32.1955 178.437 33.206 178.813C34.6881 179.346 36.5742 180.505 38.1237 183.043C39.033 181.163 40.65 178.813 43.3442 178.155C45.8373 177.529 48.6327 178.563 51.6644 181.131C51.7655 180.473 51.8329 179.847 51.9672 179.158L52.0009 178.97L52.102 178.813C52.1694 178.688 53.3483 176.839 55.0663 174.96C55.5453 174.446 56.0512 173.955 56.5822 173.487C57.5252 170.605 55.9419 166 55.5381 164.904C54.3255 163.964 52.9444 163.055 51.7655 162.366C52.3716 163.713 53.0792 165.123 53.9548 166.532L52.102 167.504C47.656 160.079 46.8478 153.625 46.713 152.247C39.3026 147.61 34.924 142.535 34.6881 142.253L36.1029 141.219L36.3388 141.031C36.4062 141.125 43.5464 149.396 54.763 154.22L55.1337 154.377L55.3022 154.722C55.3359 154.785 57.8959 159.891 62.8131 161.614C63.386 158.763 63.6556 155.599 63.2849 152.404L63.2175 151.965C62.0723 142.065 61.2304 134.923 80.6993 125.054L81.5749 126.589L81.676 126.746L81.7097 126.809C63.4871 136.05 64.1605 141.971 65.3057 151.777L65.3731 152.215C65.6764 154.847 65.5753 157.416 65.2383 159.828C64.329 166.47 61.7016 171.764 61.2304 172.673C61.0282 173.613 59.9167 178.813 57.7948 181.1L56.1778 179.816C57.2219 178.657 58.0638 176.307 58.603 174.427C56.5485 175.994 54.7293 178.469 53.9548 179.659C53.382 182.98 53.2472 185.611 53.382 187.679C55.9082 187.24 57.8285 187.616 59.1085 188.838C60.7923 190.436 60.7923 193.036 60.5564 194.822L61.0619 194.634C63.824 193.694 68.2701 192.597 71.2002 194.195C72.3122 194.822 73.1204 195.73 73.5585 196.983C74.939 195.73 76.8256 194.414 78.5768 194.822ZM68.3374 175.586C76.7919 178.437 82.4842 178.375 82.5516 178.375V179.001L82.5853 180.348H82.4505C82.282 180.348 81.9792 180.348 81.5075 180.317C79.4193 180.223 74.3667 179.722 67.5961 177.435L68.3374 175.586Z" fill="#333338"/>
<path d="M149.51 137.349C145.13 120.264 146.276 110.403 147.118 103.18C147.623 98.8459 148.028 95.4541 146.983 91.9995C145.298 86.4407 142.805 82.1063 141.053 79.5C141.019 81.7298 140.851 83.8967 140.682 86.0008L138.391 112.853C137.684 120.987 136.976 129.372 134.718 137.38C134.381 138.574 133.741 139.987 132.832 141.495C127.643 150.288 113.794 163.133 100.283 164.955C98.4974 168.629 96.0715 172.397 92.3651 174.941C92.0622 176.48 90.6807 181.882 85.6265 188.885L85.4917 189.074L85.2894 189.199C85.1883 189.231 84.3124 189.734 82.8297 190.299C83.0657 192.089 83.5713 196.423 82.6949 199.501L82.5601 199.971L82.055 200.16C81.9538 200.191 80.0667 200.914 76.4614 201.133C75.3496 203.489 74.7096 205.468 74.3051 207.101C74.545 206.944 74.8056 206.818 75.0804 206.724C76.8996 206.096 79.2245 207.038 82.1898 209.55C83.2342 210.43 84.1438 211.34 84.7843 212C86.9069 208.608 89.1306 206.473 91.3881 205.593C92.2385 205.253 93.1589 205.092 94.0837 205.122C97.7901 205.311 100.553 208.702 102.103 211.183C102.912 208.577 104.091 207.258 105.674 207.038C107.157 206.849 108.606 207.823 109.751 209.048C108.471 205.719 105.944 203.709 105.91 203.677L105.708 203.52L105.607 203.3C105.539 203.144 98.0935 186.342 116.12 174.376C122.016 170.45 126.632 166.148 130.17 162.222C135.931 155.753 138.728 150.257 139.368 148.906C138.998 147.933 137.65 145.043 134.786 142.908L135.493 142.091L136.1 141.369C138.796 143.379 140.278 145.923 140.986 147.43C144.625 144.917 147.859 140.866 149.14 139.139C149.51 138.636 149.645 137.977 149.51 137.349ZM92.4662 196.297C92.1291 196.329 91.7589 196.329 91.3881 196.329C89.9054 196.329 88.2884 196.172 86.5361 195.7L87.1092 193.785C87.2772 193.816 87.4457 193.879 87.6143 193.91C93.8477 195.324 98.2615 192.748 98.3289 192.717L99.4745 194.381C99.3064 194.475 96.6445 196.046 92.4662 196.297ZM101.9 192.089L99.1042 190.927C97.9249 191.523 94.8248 192.937 91.1858 192.937H90.7144C89.1306 192.874 87.4457 192.56 85.7613 191.775L86.7047 189.984C86.8395 190.047 86.9743 190.11 87.1092 190.142C92.5673 192.403 98.3963 189.011 98.4637 188.979L98.9356 188.697L102.743 190.299L101.9 192.089Z" fill="#333338"/>
</svg>
