<svg width="5" height="8" viewBox="0 0 5 8" fill="none" xmlns="http://www.w3.org/2000/svg">
<path d="M4.38712 3.52679L1.56045 0.700129C1.49847 0.637643 1.42474 0.588047 1.3435 0.554201C1.26226 0.520355 1.17512 0.50293 1.08712 0.50293C0.999109 0.50293 0.911972 0.520355 0.830732 0.554201C0.749493 0.588047 0.675759 0.637643 0.613784 0.700129C0.489616 0.825037 0.419922 0.994005 0.419922 1.17013C0.419922 1.34625 0.489616 1.51522 0.613784 1.64013L2.97378 4.00013L0.613784 6.36013C0.489616 6.48504 0.419922 6.654 0.419922 6.83013C0.419922 7.00625 0.489616 7.17522 0.613784 7.30013C0.676077 7.36192 0.749954 7.4108 0.831179 7.44398C0.912404 7.47715 0.999379 7.49397 1.08712 7.49346C1.17485 7.49397 1.26183 7.47715 1.34305 7.44398C1.42428 7.4108 1.49816 7.36192 1.56045 7.30013L4.38712 4.47346C4.4496 4.41149 4.4992 4.33775 4.53304 4.25651C4.56689 4.17527 4.58432 4.08814 4.58432 4.00013C4.58432 3.91212 4.56689 3.82498 4.53304 3.74374C4.4992 3.6625 4.4496 3.58877 4.38712 3.52679Z" fill="#F1B83B"/>
</svg>
