<svg width="96" height="52" viewBox="0 0 96 52" fill="none" xmlns="http://www.w3.org/2000/svg">
<path d="M0 0H96V42C96 47.5228 91.5229 52 86 52H10C4.47715 52 0 47.5228 0 42V0Z" fill="#F1B83B"/>
<g clip-path="url(#clip0_903_10226)">
<mask id="mask0_903_10226" style="mask-type:luminance" maskUnits="userSpaceOnUse" x="20" y="11" width="56" height="32">
<path d="M20.3973 11H75.6016V42.1408H20.3973V11Z" fill="white"/>
</mask>
<g mask="url(#mask0_903_10226)">
<mask id="mask1_903_10226" style="mask-type:luminance" maskUnits="userSpaceOnUse" x="20" y="11" width="56" height="31">
<path d="M20.3962 11H75.8489V41.1196H20.3962V11Z" fill="white"/>
</mask>
<g mask="url(#mask1_903_10226)">
<path d="M27.9978 33.5318H22.1483L33.6032 12.7637C34.1977 11.6653 35.3895 11 36.6854 11H42.4302L30.8713 31.8679C30.5828 32.3748 30.1648 32.796 29.66 33.0882C29.1552 33.3805 28.5818 33.5333 27.9985 33.5311L27.9978 33.5318ZM61.2421 33.5318H66.3209C67.7576 33.5318 68.8086 32.2671 68.5284 30.9691L64.0434 11H58.9639C57.5278 11 56.4768 12.2647 56.7571 13.562L61.2414 33.5318H61.2421Z" fill="#1A1B1F"/>
<path d="M52.9042 15.3597H45.0574L46.5635 12.6639C47.124 11.632 48.2451 11 49.4362 11H55.3211L52.9042 15.3597Z" fill="#DF0A1D"/>
<path d="M55.7665 33.8339H51.6523C49.9778 33.8339 48.8978 32.1371 49.6643 30.7077L50.3617 29.443H58.1723L55.7665 33.8339ZM74.7001 15.6734H66.8896L69.2954 11.3164H73.4095C75.0834 11.3164 76.1641 13.0125 75.3976 14.4427L74.7001 15.6734ZM40.8428 33.8339H35.0195L43.9805 17.5689H51.7911L43.7368 32.2029C43.1788 33.1676 42.0629 33.8332 40.8428 33.8332V33.8339ZM28.2551 15.6734H20.4445L21.9436 12.9793C22.5016 11.948 23.6175 11.3164 24.8031 11.3164H30.6609L28.2551 15.6734Z" fill="#1A1B1F"/>
<path d="M21.2017 37.326H21.9377L21.2724 40.5207H23.3744L23.2336 41.1195H20.3962L21.2017 37.326ZM27.4369 40.9199C27.1573 40.7868 26.9118 40.5873 26.7716 40.3537C26.6135 40.105 26.5286 39.8168 26.5267 39.5221C26.5267 39.1229 26.6315 38.7238 26.8417 38.3904C27.0519 38.0578 27.3322 37.7917 27.7179 37.5921C28.1029 37.3925 28.5233 37.292 29.0131 37.292C29.3988 37.292 29.7491 37.3585 30.0294 37.4923C30.3096 37.6253 30.5552 37.8249 30.6947 38.0578C30.8355 38.2913 30.9402 38.5567 30.9402 38.8901C30.9402 39.2893 30.8355 39.6884 30.6253 40.0211C30.4151 40.3537 30.1348 40.6205 29.7491 40.8201C29.3641 41.0197 28.9437 41.1195 28.4532 41.1195C28.0675 41.1195 27.7526 41.053 27.4369 40.9199ZM29.3988 40.3211C29.6444 40.1881 29.8546 39.9885 29.9593 39.755C30.0994 39.5221 30.1695 39.256 30.1695 38.9566C30.1695 38.6565 30.0648 38.3904 29.8546 38.2241C29.6444 38.0245 29.3287 37.958 28.9437 37.958C28.628 37.958 28.3478 38.0245 28.0675 38.1576C27.8226 38.2906 27.6124 38.4902 27.507 38.7238C27.3675 38.9566 27.2975 39.2227 27.2975 39.5221C27.2975 39.8215 27.4022 40.0883 27.6124 40.2546C27.8226 40.4542 28.1376 40.5207 28.5233 40.5207C28.8736 40.5207 29.1532 40.4542 29.3988 40.3211ZM37.2109 39.1895H37.9115L37.5612 40.6871C37.351 40.8201 37.1408 40.9532 36.8605 41.0197C36.615 41.0862 36.3354 41.1527 36.0551 41.1527C35.6694 41.1527 35.3191 41.0862 35.0388 40.9532C34.7585 40.8201 34.5137 40.6205 34.3735 40.387C34.198 40.1548 34.1279 39.888 34.1279 39.5554C34.1279 39.1562 34.2334 38.757 34.4436 38.4237C34.6538 38.091 34.9341 37.8249 35.3191 37.6253C35.7048 37.4258 36.1252 37.326 36.615 37.326C36.9653 37.326 37.2802 37.3925 37.5612 37.4923C37.8415 37.5914 38.0517 37.7584 38.2265 37.958L37.7013 38.3572C37.5612 38.2241 37.4211 38.091 37.2456 38.0245C37.0433 37.9535 36.8299 37.9197 36.6157 37.9247C36.2653 37.9247 35.9851 37.9912 35.7048 38.1243C35.4592 38.2574 35.249 38.4569 35.1089 38.6905C34.9687 38.9233 34.8987 39.1895 34.8987 39.4888C34.8987 39.7882 35.0041 40.055 35.2143 40.2214C35.4245 40.3877 35.7395 40.4875 36.1599 40.4875C36.4401 40.4875 36.685 40.4209 36.9306 40.3211L37.2109 39.1888V39.1895ZM42.255 37.326H42.991L42.1849 41.1195H41.4489L42.255 37.326ZM46.8447 41.0197C46.5637 40.9532 46.3535 40.8201 46.1787 40.7203L46.4937 40.1881C46.6692 40.3211 46.844 40.4209 47.0896 40.4875C47.3345 40.554 47.5447 40.5873 47.7903 40.5873C48.0698 40.5873 48.3154 40.554 48.4909 40.4542C48.6657 40.3544 48.7358 40.2206 48.7358 40.055C48.7369 40.0107 48.728 39.9666 48.7098 39.9262C48.6915 39.8858 48.6644 39.85 48.6304 39.8215C48.5603 39.755 48.4555 39.7224 48.3501 39.6552C48.2453 39.6219 48.1052 39.5886 47.9304 39.5221C47.7171 39.4658 47.5067 39.3992 47.2998 39.3225C47.1243 39.256 47.0195 39.1562 46.8794 39.0231C46.7652 38.8817 46.7033 38.7052 46.7039 38.5235C46.7039 38.2906 46.7747 38.0917 46.9141 37.8915C47.0542 37.7251 47.2644 37.5588 47.5447 37.459C47.8249 37.3592 48.1052 37.326 48.4555 37.326C48.7004 37.326 48.946 37.3592 49.1916 37.3925C49.4365 37.459 49.6113 37.5255 49.7861 37.6253L49.5066 38.1576C49.359 38.0571 49.1918 37.9891 49.0161 37.958C48.8199 37.9174 48.6204 37.8952 48.4202 37.8915C48.1763 37.8865 47.9351 37.9438 47.7195 38.0578C47.5447 38.1576 47.4746 38.2913 47.4746 38.4569C47.4746 38.5567 47.51 38.624 47.5794 38.6905C47.6501 38.757 47.7549 38.7896 47.8596 38.8568C47.9651 38.8901 48.1052 38.9559 48.3154 38.9899C48.5603 39.0564 48.7705 39.1229 48.9453 39.1895C49.1208 39.256 49.2263 39.3558 49.3664 39.4556C49.4712 39.5886 49.5412 39.7549 49.5412 39.9213C49.5412 40.1548 49.4712 40.3877 49.331 40.554C49.1909 40.7203 48.9807 40.8866 48.7011 40.9864C48.4202 41.0862 48.1399 41.1195 47.7896 41.1195C47.4716 41.1232 47.1543 41.0899 46.844 41.0204L46.8447 41.0197ZM54.3751 37.9247H53.0446L53.1847 37.326H56.5819L56.4425 37.9247H55.1119L54.4459 41.1195H53.6745L54.3751 37.9247ZM60.5757 37.326H61.3118L60.5056 41.1195H59.7696L60.5757 37.326ZM65.4096 40.9199C65.1293 40.7868 64.8845 40.5873 64.7443 40.3537C64.5862 40.105 64.5014 39.8168 64.4994 39.5221C64.4994 39.1229 64.6042 38.7238 64.8144 38.3904C65.0246 38.0578 65.3049 37.7917 65.6899 37.5921C66.0756 37.3925 66.496 37.292 66.9865 37.292C67.3368 37.292 67.6517 37.3585 67.8973 37.459C68.1769 37.5581 68.3524 37.7251 68.4918 37.9247L67.9667 38.3572C67.7572 38.0578 67.4069 37.9247 66.9164 37.9247C66.6007 37.9247 66.2858 37.9912 66.0402 38.1243C65.7953 38.2574 65.5851 38.4569 65.445 38.6905C65.3049 38.9233 65.2348 39.1895 65.2348 39.4888C65.2348 39.7882 65.3395 40.055 65.5497 40.2214C65.7599 40.3877 66.0756 40.4875 66.4606 40.4875C66.9164 40.4875 67.3014 40.3544 67.5817 40.055L68.0021 40.4868C67.8184 40.6994 67.5738 40.8506 67.3014 40.9199C67.0211 41.0197 66.7062 41.053 66.3905 41.053C66.0756 41.1195 65.7253 41.053 65.4096 40.9199Z" fill="#DF0A1D"/>
</g>
</g>
</g>
<defs>
<clipPath id="clip0_903_10226">
<rect width="76" height="44" fill="white" transform="translate(10 4.57031)"/>
</clipPath>
</defs>
</svg>
