<svg width="78" height="44" viewBox="0 0 78 44" fill="none" xmlns="http://www.w3.org/2000/svg">
<mask id="mask0_903_10678" style="mask-type:luminance" maskUnits="userSpaceOnUse" x="0" y="0" width="78" height="44">
<path d="M0 0H78V44H0V0Z" fill="white"/>
</mask>
<g mask="url(#mask0_903_10678)">
<mask id="mask1_903_10678" style="mask-type:luminance" maskUnits="userSpaceOnUse" x="0" y="0" width="79" height="43">
<path d="M0 0H78.351V42.557H0V0Z" fill="white"/>
</mask>
<g mask="url(#mask1_903_10678)">
<path d="M10.74 31.836H2.47501L18.66 2.492C19.5 0.94 21.184 0 23.015 0H31.132L14.8 29.485C14.3924 30.2013 13.8017 30.7963 13.0885 31.2092C12.3753 31.6222 11.5651 31.8381 10.741 31.835L10.74 31.836ZM57.712 31.836H64.888C66.918 31.836 68.403 30.049 68.007 28.215L61.67 0H54.493C52.464 0 50.979 1.787 51.375 3.62L57.711 31.836H57.712Z" fill="white"/>
<path d="M45.932 6.16H34.845L36.973 2.351C37.765 0.893 39.349 0 41.032 0H49.347L45.932 6.16Z" fill="white"/>
<path d="M50.139 31.836H44.299C41.922 31.836 40.389 29.437 41.477 27.416L42.467 25.628H53.554L50.139 31.836ZM77.015 6.16H65.928L69.343 0H75.183C77.559 0 79.093 2.398 78.005 4.42L77.015 6.16ZM28.955 31.836H20.689L33.409 8.84H44.496L33.063 29.53C32.271 30.894 30.687 31.835 28.955 31.835V31.836ZM11.087 6.16H0L2.128 2.351C2.92 0.893 4.504 0 6.187 0H14.502L11.087 6.16Z" fill="white"/>
<path d="M1.138 37.197H2.178L1.238 41.711H4.208L4.009 42.557H0L1.138 37.197ZM9.948 42.2751C9.553 42.0871 9.206 41.805 9.008 41.475C8.78461 41.1236 8.6647 40.7164 8.662 40.3C8.662 39.736 8.81 39.172 9.107 38.701C9.404 38.231 9.8 37.8551 10.345 37.5731C10.889 37.2911 11.483 37.149 12.175 37.149C12.72 37.149 13.215 37.243 13.611 37.432C14.007 37.62 14.354 37.902 14.551 38.231C14.75 38.561 14.898 38.9361 14.898 39.4071C14.898 39.9711 14.75 40.5351 14.453 41.0051C14.156 41.4751 13.76 41.852 13.215 42.134C12.671 42.416 12.077 42.557 11.384 42.557C10.839 42.557 10.394 42.4631 9.948 42.2751ZM12.72 41.4291C13.067 41.2411 13.364 40.9591 13.512 40.6291C13.71 40.3001 13.809 39.924 13.809 39.501C13.809 39.077 13.661 38.701 13.364 38.466C13.067 38.184 12.621 38.09 12.077 38.09C11.631 38.09 11.235 38.1841 10.839 38.3721C10.493 38.5601 10.196 38.8421 10.047 39.1721C9.85 39.5011 9.751 39.877 9.751 40.3C9.751 40.723 9.899 41.1 10.196 41.335C10.493 41.617 10.938 41.711 11.483 41.711C11.978 41.711 12.373 41.6171 12.72 41.4291ZM23.758 39.8301H24.748L24.253 41.946C23.956 42.134 23.659 42.3221 23.263 42.416C22.916 42.51 22.521 42.604 22.125 42.604C21.58 42.604 21.085 42.51 20.689 42.322C20.293 42.134 19.947 41.852 19.749 41.522C19.501 41.194 19.402 40.817 19.402 40.347C19.402 39.783 19.551 39.2191 19.848 38.7481C20.145 38.2781 20.541 37.902 21.085 37.62C21.63 37.338 22.224 37.197 22.916 37.197C23.411 37.197 23.856 37.291 24.253 37.432C24.649 37.572 24.946 37.808 25.193 38.09L24.451 38.654C24.253 38.466 24.055 38.278 23.807 38.184C23.5213 38.0837 23.2197 38.036 22.917 38.043C22.422 38.043 22.026 38.1371 21.63 38.3251C21.283 38.5131 20.986 38.795 20.788 39.125C20.59 39.454 20.491 39.83 20.491 40.253C20.491 40.676 20.64 41.053 20.937 41.288C21.234 41.523 21.679 41.6641 22.273 41.6641C22.669 41.6641 23.015 41.5701 23.362 41.4291L23.758 39.829V39.8301ZM30.885 37.197H31.925L30.786 42.557H29.746L30.885 37.197ZM37.37 42.416C36.973 42.3221 36.676 42.134 36.429 41.993L36.874 41.2411C37.122 41.4291 37.369 41.5701 37.716 41.6641C38.062 41.7581 38.359 41.805 38.706 41.805C39.101 41.805 39.448 41.758 39.696 41.6171C39.943 41.4761 40.042 41.2871 40.042 41.0531C40.0436 40.9904 40.031 40.9282 40.0052 40.871C39.9794 40.8139 39.941 40.7633 39.893 40.723C39.794 40.629 39.646 40.583 39.497 40.488C39.349 40.441 39.151 40.394 38.904 40.3C38.6026 40.2205 38.3053 40.1263 38.013 40.0181C37.765 39.9241 37.617 39.7831 37.419 39.5951C37.2577 39.3952 37.1701 39.1459 37.171 38.889C37.171 38.56 37.271 38.279 37.468 37.996C37.666 37.761 37.963 37.526 38.359 37.385C38.755 37.244 39.151 37.197 39.646 37.197C39.992 37.197 40.339 37.244 40.686 37.291C41.032 37.385 41.279 37.479 41.526 37.62L41.131 38.3721C40.9225 38.2301 40.6863 38.134 40.438 38.09C40.1608 38.0328 39.879 38.0013 39.596 37.996C39.2514 37.9891 38.9107 38.0699 38.606 38.231C38.359 38.372 38.26 38.561 38.26 38.795C38.26 38.936 38.31 39.031 38.408 39.125C38.508 39.219 38.656 39.2651 38.804 39.3601C38.953 39.4071 39.151 39.5 39.448 39.548C39.794 39.6421 40.091 39.7361 40.338 39.8301C40.586 39.9241 40.735 40.0651 40.933 40.2061C41.081 40.3941 41.18 40.629 41.18 40.864C41.18 41.194 41.081 41.523 40.883 41.758C40.685 41.993 40.388 42.228 39.993 42.369C39.596 42.51 39.2 42.557 38.705 42.557C38.2557 42.5623 37.8074 42.5153 37.369 42.417L37.37 42.416ZM48.01 38.043H46.13L46.328 37.197H51.128L50.931 38.043H49.051L48.11 42.557H47.02L48.01 38.043ZM56.771 37.197H57.811L56.672 42.557H55.632L56.771 37.197ZM63.601 42.2751C63.205 42.0871 62.859 41.805 62.661 41.475C62.4376 41.1236 62.3177 40.7164 62.315 40.3C62.315 39.736 62.463 39.172 62.76 38.701C63.057 38.231 63.453 37.8551 63.997 37.5731C64.542 37.2911 65.136 37.149 65.829 37.149C66.324 37.149 66.769 37.243 67.116 37.385C67.511 37.525 67.759 37.761 67.956 38.043L67.214 38.654C66.918 38.231 66.423 38.043 65.73 38.043C65.284 38.043 64.839 38.1371 64.492 38.3251C64.146 38.5131 63.849 38.795 63.651 39.125C63.453 39.454 63.354 39.83 63.354 40.253C63.354 40.676 63.502 41.053 63.799 41.288C64.096 41.523 64.542 41.6641 65.086 41.6641C65.73 41.6641 66.274 41.4761 66.67 41.0531L67.264 41.663C67.0044 41.9636 66.6589 42.1772 66.274 42.2751C65.878 42.4161 65.433 42.4631 64.987 42.4631C64.542 42.5571 64.047 42.4631 63.601 42.2751Z" fill="white"/>
</g>
</g>
</svg>
