<svg width="11" height="7" viewBox="0 0 11 7" fill="none" xmlns="http://www.w3.org/2000/svg">
<path d="M6.2103 6.03282L10.4503 1.79282C10.544 1.69986 10.6184 1.58926 10.6692 1.4674C10.72 1.34554 10.7461 1.21484 10.7461 1.08282C10.7461 0.950812 10.72 0.820106 10.6692 0.698247C10.6184 0.576388 10.544 0.465787 10.4503 0.372824C10.2629 0.186573 10.0095 0.0820312 9.7453 0.0820312C9.48111 0.0820312 9.22766 0.186573 9.0403 0.372824L5.5003 3.91282L1.9603 0.372823C1.77293 0.186572 1.51948 0.0820308 1.25529 0.0820308C0.991109 0.0820308 0.737658 0.186572 0.550295 0.372823C0.457614 0.466263 0.384289 0.577079 0.334524 0.698917C0.284759 0.820754 0.259535 0.951217 0.260296 1.08282C0.259535 1.21443 0.284759 1.34489 0.334524 1.46673C0.384289 1.58857 0.457614 1.69938 0.550295 1.79282L4.7903 6.03282C4.88326 6.12655 4.99386 6.20095 5.11572 6.25171C5.23758 6.30248 5.36828 6.32862 5.5003 6.32862C5.63231 6.32862 5.76301 6.30248 5.88487 6.25171C6.00673 6.20095 6.11733 6.12655 6.2103 6.03282Z" fill="#ADAFB4"/>
</svg>
