<svg width="18" height="18" viewBox="0 0 18 18" fill="none" xmlns="http://www.w3.org/2000/svg">
<path d="M16.12 12.0044C15.0267 12.0044 13.9689 11.8267 12.9822 11.5067C12.721 11.4171 12.4347 11.4591 12.2075 11.617C12.1198 11.678 12.055 11.7651 11.9966 11.8546V11.8546C11.5736 12.5028 10.7304 12.7456 10.0734 12.3362C8.44713 11.3229 6.95841 9.8875 5.88593 8.24563C5.39319 7.49128 5.61168 6.50851 6.29778 5.92444V5.92444C6.53778 5.67556 6.60889 5.32889 6.51111 5.01778C6.18222 4.03111 6.01333 2.97333 6.01333 1.88C6.01333 1.4 5.61333 1 5.13333 1H2.05778C1.57778 1 1 1.21333 1 1.88C1 10.1378 7.87111 17 16.12 17C16.7511 17 17 16.44 17 15.9511V12.8844C17 12.4044 16.6 12.0044 16.12 12.0044Z" stroke="white"/>
</svg>
