<svg width="18" height="14" viewBox="0 0 18 14" fill="none" xmlns="http://www.w3.org/2000/svg">
<path fill-rule="evenodd" clip-rule="evenodd" d="M0.5 4C0.5 2.067 2.067 0.5 4 0.5H14C15.933 0.5 17.5 2.067 17.5 4V10C17.5 11.933 15.933 13.5 14 13.5H4C2.067 13.5 0.5 11.933 0.5 10V4ZM10.4287 6.96711C9.5701 7.56509 8.4299 7.56509 7.57127 6.96711L1.74853 2.91199C2.15311 2.07632 3.00925 1.5 4 1.5H14C14.9907 1.5 15.8469 2.07632 16.2515 2.91199L10.4287 6.96711ZM11.0002 7.78772C9.79814 8.62489 8.20186 8.62489 6.99977 7.78772L1.5 4V10C1.5 11.3807 2.61929 12.5 4 12.5H14C15.3807 12.5 16.5 11.3807 16.5 10V4L11.0002 7.78772Z" fill="white"/>
</svg>
